<mxfile host="65bd71144e">
    <diagram id="iFqBT97sE6YIXAL9ICmt" name="Page-1">
        <mxGraphModel dx="166" dy="298" grid="1" gridSize="10" guides="1" tooltips="1" connect="1" arrows="1" fold="1" page="1" pageScale="1" pageWidth="827" pageHeight="1169" math="0" shadow="0">
            <root>
                <mxCell id="0"/>
                <mxCell id="1" parent="0"/>
                <mxCell id="2" value="" style="shape=internalStorage;whiteSpace=wrap;html=1;backgroundOutline=1;movable=1;resizable=1;rotatable=1;deletable=1;editable=1;connectable=1;dx=0;dy=30;" vertex="1" parent="1">
                    <mxGeometry x="20" y="50" width="130" height="120" as="geometry"/>
                </mxCell>
                <mxCell id="3" value="KaiStack" style="text;html=1;align=center;verticalAlign=middle;resizable=0;points=[];autosize=1;strokeColor=none;fillColor=none;" vertex="1" parent="1">
                    <mxGeometry x="60" y="30" width="70" height="30" as="geometry"/>
                </mxCell>
                <mxCell id="4" value="+ _strstack.string[]" style="text;html=1;strokeColor=none;fillColor=none;align=center;verticalAlign=middle;whiteSpace=wrap;rounded=0;" vertex="1" parent="1">
                    <mxGeometry x="40" y="50" width="110" height="30" as="geometry"/>
                </mxCell>
                <mxCell id="5" value="+ isEmpty(): boolean" style="text;html=1;strokeColor=none;fillColor=none;align=center;verticalAlign=middle;whiteSpace=wrap;rounded=0;" vertex="1" parent="1">
                    <mxGeometry x="20" y="80" width="120" height="30" as="geometry"/>
                </mxCell>
                <mxCell id="6" value="+ peak(): string" style="text;html=1;strokeColor=none;fillColor=none;align=center;verticalAlign=middle;whiteSpace=wrap;rounded=0;" vertex="1" parent="1">
                    <mxGeometry x="10" y="90" width="110" height="30" as="geometry"/>
                </mxCell>
                <mxCell id="7" value="+ size(): int" style="text;html=1;strokeColor=none;fillColor=none;align=center;verticalAlign=middle;whiteSpace=wrap;rounded=0;" vertex="1" parent="1">
                    <mxGeometry x="10" y="100" width="90" height="30" as="geometry"/>
                </mxCell>
                <mxCell id="10" value="&amp;nbsp;+ show(): string" style="text;html=1;strokeColor=none;fillColor=none;align=center;verticalAlign=middle;whiteSpace=wrap;rounded=0;" vertex="1" parent="1">
                    <mxGeometry x="10" y="110" width="110" height="30" as="geometry"/>
                </mxCell>
                <mxCell id="12" value="&amp;nbsp; + clear()" style="text;html=1;strokeColor=none;fillColor=none;align=center;verticalAlign=middle;whiteSpace=wrap;rounded=0;" vertex="1" parent="1">
                    <mxGeometry x="10" y="120" width="70" height="30" as="geometry"/>
                </mxCell>
                <mxCell id="14" value="+ push(string)" style="text;html=1;strokeColor=none;fillColor=none;align=center;verticalAlign=middle;whiteSpace=wrap;rounded=0;" vertex="1" parent="1">
                    <mxGeometry x="25" y="130" width="80" height="30" as="geometry"/>
                </mxCell>
                <mxCell id="15" value="+ pop(): string" style="text;html=1;strokeColor=none;fillColor=none;align=center;verticalAlign=middle;whiteSpace=wrap;rounded=0;" vertex="1" parent="1">
                    <mxGeometry x="12.5" y="140" width="105" height="30" as="geometry"/>
                </mxCell>
            </root>
        </mxGraphModel>
    </diagram>
</mxfile>